<mxfile host="app.diagrams.net" modified="2023-06-07T03:29:35.759Z" agent="Mozilla/5.0 (Macintosh; Intel Mac OS X 10_15_7) AppleWebKit/537.36 (KHTML, like Gecko) Chrome/111.0.0.0 Safari/537.36" etag="lPlVFN8Jk6vQfCCCU4nL" version="21.3.7" type="github">
  <diagram id="C5RBs43oDa-KdzZeNtuy" name="Page-1">
    <mxGraphModel dx="812" dy="870" grid="1" gridSize="10" guides="1" tooltips="1" connect="1" arrows="1" fold="1" page="1" pageScale="1" pageWidth="827" pageHeight="1169" background="#ffffff" math="0" shadow="0">
      <root>
        <mxCell id="WIyWlLk6GJQsqaUBKTNV-0" />
        <mxCell id="WIyWlLk6GJQsqaUBKTNV-1" parent="WIyWlLk6GJQsqaUBKTNV-0" />
        <mxCell id="9VrKjttd9d1rW2Ej-TMo-0" value="Year" style="rounded=1;whiteSpace=wrap;html=1;labelBackgroundColor=none;fillColor=#09555B;strokeColor=#BAC8D3;fontColor=#EEEEEE;fontFamily=Lucida Console;fontSize=14;" vertex="1" parent="WIyWlLk6GJQsqaUBKTNV-1">
          <mxGeometry x="290" y="120" width="120" height="60" as="geometry" />
        </mxCell>
        <mxCell id="9VrKjttd9d1rW2Ej-TMo-1" value="Is divisible by 4?" style="shape=process;whiteSpace=wrap;html=1;backgroundOutline=1;strokeColor=#BAC8D3;fontColor=#EEEEEE;fillColor=#09555B;labelBackgroundColor=none;fontFamily=Lucida Console;fontSize=14;" vertex="1" parent="WIyWlLk6GJQsqaUBKTNV-1">
          <mxGeometry x="290" y="240" width="120" height="60" as="geometry" />
        </mxCell>
        <mxCell id="9VrKjttd9d1rW2Ej-TMo-4" value="" style="curved=1;endArrow=classic;html=1;rounded=0;strokeColor=#0B4D6A;entryX=0.5;entryY=0;entryDx=0;entryDy=0;labelBackgroundColor=none;fontColor=default;exitX=0;exitY=0.5;exitDx=0;exitDy=0;" edge="1" parent="WIyWlLk6GJQsqaUBKTNV-1" source="9VrKjttd9d1rW2Ej-TMo-1" target="9VrKjttd9d1rW2Ej-TMo-6">
          <mxGeometry width="50" height="50" relative="1" as="geometry">
            <mxPoint x="219.28932188134524" y="320" as="sourcePoint" />
            <mxPoint x="170" y="290" as="targetPoint" />
            <Array as="points">
              <mxPoint x="200" y="230" />
            </Array>
          </mxGeometry>
        </mxCell>
        <mxCell id="9VrKjttd9d1rW2Ej-TMo-5" value="&lt;font style=&quot;font-size: 17px;&quot; color=&quot;#000000&quot;&gt;No&lt;/font&gt;" style="text;html=1;strokeColor=#A50040;fillColor=#d80073;align=center;verticalAlign=middle;whiteSpace=wrap;rounded=0;fontColor=#ffffff;labelBackgroundColor=none;fontFamily=Lucida Console;" vertex="1" parent="WIyWlLk6GJQsqaUBKTNV-1">
          <mxGeometry x="190" y="220" width="70" height="30" as="geometry" />
        </mxCell>
        <mxCell id="9VrKjttd9d1rW2Ej-TMo-6" value="Not Leap" style="rounded=1;whiteSpace=wrap;html=1;labelBackgroundColor=none;fillColor=#FFCCCC;strokeColor=#FF0000;fontFamily=Lucida Console;fontSize=14;fontColor=#000000;strokeWidth=2;" vertex="1" parent="WIyWlLk6GJQsqaUBKTNV-1">
          <mxGeometry x="100" y="310" width="120" height="60" as="geometry" />
        </mxCell>
        <mxCell id="9VrKjttd9d1rW2Ej-TMo-9" value="" style="curved=1;endArrow=classic;html=1;rounded=0;strokeColor=#0B4D6A;entryX=0.5;entryY=0;entryDx=0;entryDy=0;labelBackgroundColor=none;fontColor=default;exitX=1;exitY=0.5;exitDx=0;exitDy=0;" edge="1" parent="WIyWlLk6GJQsqaUBKTNV-1" source="9VrKjttd9d1rW2Ej-TMo-1" target="9VrKjttd9d1rW2Ej-TMo-17">
          <mxGeometry width="50" height="50" relative="1" as="geometry">
            <mxPoint x="420" y="307.5" as="sourcePoint" />
            <mxPoint x="530" y="360" as="targetPoint" />
            <Array as="points">
              <mxPoint x="520" y="270" />
            </Array>
          </mxGeometry>
        </mxCell>
        <mxCell id="9VrKjttd9d1rW2Ej-TMo-13" value="" style="curved=1;endArrow=classic;html=1;rounded=0;strokeColor=#0B4D6A;fontColor=default;entryX=0.5;entryY=0;entryDx=0;entryDy=0;labelBackgroundColor=none;exitX=0;exitY=0.5;exitDx=0;exitDy=0;" edge="1" parent="WIyWlLk6GJQsqaUBKTNV-1" source="9VrKjttd9d1rW2Ej-TMo-17" target="9VrKjttd9d1rW2Ej-TMo-14">
          <mxGeometry width="50" height="50" relative="1" as="geometry">
            <mxPoint x="470" y="383.33333333333326" as="sourcePoint" />
            <mxPoint x="350" y="460" as="targetPoint" />
            <Array as="points">
              <mxPoint x="350" y="370" />
            </Array>
          </mxGeometry>
        </mxCell>
        <mxCell id="9VrKjttd9d1rW2Ej-TMo-14" value="Leap" style="rounded=1;whiteSpace=wrap;html=1;labelBackgroundColor=none;fillColor=#B3FF66;strokeColor=#1A3300;fontFamily=Lucida Console;fontSize=14;fontColor=#000000;strokeWidth=2;" vertex="1" parent="WIyWlLk6GJQsqaUBKTNV-1">
          <mxGeometry x="290" y="460" width="120" height="60" as="geometry" />
        </mxCell>
        <mxCell id="9VrKjttd9d1rW2Ej-TMo-16" value="" style="curved=1;endArrow=classic;html=1;rounded=0;strokeColor=#0B4D6A;entryX=0.5;entryY=0;entryDx=0;entryDy=0;labelBackgroundColor=none;fontColor=default;exitX=1;exitY=0.5;exitDx=0;exitDy=0;" edge="1" parent="WIyWlLk6GJQsqaUBKTNV-1" source="9VrKjttd9d1rW2Ej-TMo-17">
          <mxGeometry width="50" height="50" relative="1" as="geometry">
            <mxPoint x="590" y="383" as="sourcePoint" />
            <mxPoint x="680" y="480" as="targetPoint" />
            <Array as="points">
              <mxPoint x="690" y="345" />
            </Array>
          </mxGeometry>
        </mxCell>
        <mxCell id="9VrKjttd9d1rW2Ej-TMo-17" value="Is divisible by 100?" style="shape=process;whiteSpace=wrap;html=1;backgroundOutline=1;strokeColor=#BAC8D3;fontColor=#EEEEEE;fillColor=#09555B;labelBackgroundColor=none;fontFamily=Lucida Console;fontSize=14;" vertex="1" parent="WIyWlLk6GJQsqaUBKTNV-1">
          <mxGeometry x="470" y="360" width="120" height="60" as="geometry" />
        </mxCell>
        <mxCell id="9VrKjttd9d1rW2Ej-TMo-18" value="&lt;font style=&quot;font-size: 17px;&quot; color=&quot;#000000&quot;&gt;Yes&lt;/font&gt;" style="text;html=1;strokeColor=#006EAF;fillColor=#1ba1e2;align=center;verticalAlign=middle;whiteSpace=wrap;rounded=0;fontColor=#ffffff;labelBackgroundColor=none;fontFamily=Lucida Console;" vertex="1" parent="WIyWlLk6GJQsqaUBKTNV-1">
          <mxGeometry x="430" y="230" width="70" height="30" as="geometry" />
        </mxCell>
        <mxCell id="9VrKjttd9d1rW2Ej-TMo-20" value="&lt;font style=&quot;font-size: 17px;&quot; color=&quot;#000000&quot;&gt;Yes&lt;/font&gt;" style="text;html=1;strokeColor=#006EAF;fillColor=#1ba1e2;align=center;verticalAlign=middle;whiteSpace=wrap;rounded=0;fontColor=#ffffff;labelBackgroundColor=none;fontFamily=Lucida Console;" vertex="1" parent="WIyWlLk6GJQsqaUBKTNV-1">
          <mxGeometry x="600" y="340" width="70" height="30" as="geometry" />
        </mxCell>
        <mxCell id="9VrKjttd9d1rW2Ej-TMo-21" value="&lt;font style=&quot;font-size: 17px;&quot; color=&quot;#000000&quot;&gt;No&lt;/font&gt;" style="text;html=1;strokeColor=#A50040;fillColor=#d80073;align=center;verticalAlign=middle;whiteSpace=wrap;rounded=0;fontColor=#ffffff;labelBackgroundColor=none;fontFamily=Lucida Console;" vertex="1" parent="WIyWlLk6GJQsqaUBKTNV-1">
          <mxGeometry x="389" y="340" width="70" height="30" as="geometry" />
        </mxCell>
        <mxCell id="9VrKjttd9d1rW2Ej-TMo-22" value="" style="endArrow=classic;html=1;rounded=0;strokeColor=#0B4D6A;" edge="1" parent="WIyWlLk6GJQsqaUBKTNV-1" source="9VrKjttd9d1rW2Ej-TMo-0">
          <mxGeometry width="50" height="50" relative="1" as="geometry">
            <mxPoint x="350" y="230" as="sourcePoint" />
            <mxPoint x="350" y="250.71067811865476" as="targetPoint" />
          </mxGeometry>
        </mxCell>
        <mxCell id="9VrKjttd9d1rW2Ej-TMo-25" value="Is divisible by 400?" style="shape=process;whiteSpace=wrap;html=1;backgroundOutline=1;strokeColor=#BAC8D3;fontColor=#EEEEEE;fillColor=#09555B;labelBackgroundColor=none;fontFamily=Lucida Console;fontSize=14;" vertex="1" parent="WIyWlLk6GJQsqaUBKTNV-1">
          <mxGeometry x="620" y="480" width="120" height="60" as="geometry" />
        </mxCell>
        <mxCell id="9VrKjttd9d1rW2Ej-TMo-26" value="" style="curved=1;endArrow=classic;html=1;rounded=0;strokeColor=#0B4D6A;entryX=0.5;entryY=0;entryDx=0;entryDy=0;labelBackgroundColor=none;fontColor=default;exitX=1;exitY=0.5;exitDx=0;exitDy=0;" edge="1" parent="WIyWlLk6GJQsqaUBKTNV-1" source="9VrKjttd9d1rW2Ej-TMo-25">
          <mxGeometry width="50" height="50" relative="1" as="geometry">
            <mxPoint x="740" y="515" as="sourcePoint" />
            <mxPoint x="840" y="600" as="targetPoint" />
            <Array as="points">
              <mxPoint x="840" y="470" />
            </Array>
          </mxGeometry>
        </mxCell>
        <mxCell id="9VrKjttd9d1rW2Ej-TMo-27" value="" style="curved=1;endArrow=classic;html=1;rounded=0;strokeColor=#0B4D6A;fontColor=default;entryX=0.5;entryY=0;entryDx=0;entryDy=0;labelBackgroundColor=none;exitX=0;exitY=0.5;exitDx=0;exitDy=0;" edge="1" parent="WIyWlLk6GJQsqaUBKTNV-1" source="9VrKjttd9d1rW2Ej-TMo-25">
          <mxGeometry width="50" height="50" relative="1" as="geometry">
            <mxPoint x="620" y="510" as="sourcePoint" />
            <mxPoint x="500" y="580" as="targetPoint" />
            <Array as="points">
              <mxPoint x="500" y="490" />
            </Array>
          </mxGeometry>
        </mxCell>
        <mxCell id="9VrKjttd9d1rW2Ej-TMo-30" value="&lt;font style=&quot;font-size: 17px;&quot; color=&quot;#000000&quot;&gt;Yes&lt;/font&gt;" style="text;html=1;strokeColor=#006EAF;fillColor=#1ba1e2;align=center;verticalAlign=middle;whiteSpace=wrap;rounded=0;fontColor=#ffffff;labelBackgroundColor=none;fontFamily=Lucida Console;" vertex="1" parent="WIyWlLk6GJQsqaUBKTNV-1">
          <mxGeometry x="750" y="460" width="70" height="30" as="geometry" />
        </mxCell>
        <mxCell id="9VrKjttd9d1rW2Ej-TMo-31" value="&lt;font style=&quot;font-size: 17px;&quot; color=&quot;#000000&quot;&gt;No&lt;/font&gt;" style="text;html=1;strokeColor=#A50040;fillColor=#d80073;align=center;verticalAlign=middle;whiteSpace=wrap;rounded=0;fontColor=#ffffff;labelBackgroundColor=none;fontFamily=Lucida Console;" vertex="1" parent="WIyWlLk6GJQsqaUBKTNV-1">
          <mxGeometry x="520" y="470" width="70" height="30" as="geometry" />
        </mxCell>
        <mxCell id="9VrKjttd9d1rW2Ej-TMo-32" value="Not Leap" style="rounded=1;whiteSpace=wrap;html=1;labelBackgroundColor=none;fillColor=#FFCCCC;strokeColor=#FF0000;fontFamily=Lucida Console;fontSize=14;fontColor=#000000;strokeWidth=2;" vertex="1" parent="WIyWlLk6GJQsqaUBKTNV-1">
          <mxGeometry x="440" y="580" width="120" height="60" as="geometry" />
        </mxCell>
        <mxCell id="9VrKjttd9d1rW2Ej-TMo-33" value="Leap" style="rounded=1;whiteSpace=wrap;html=1;labelBackgroundColor=none;fillColor=#B3FF66;strokeColor=#1A3300;fontFamily=Lucida Console;fontSize=14;fontColor=#000000;strokeWidth=2;" vertex="1" parent="WIyWlLk6GJQsqaUBKTNV-1">
          <mxGeometry x="780" y="600" width="120" height="60" as="geometry" />
        </mxCell>
      </root>
    </mxGraphModel>
  </diagram>
</mxfile>
